<svg width="12" height="12" viewBox="0 0 12 12" fill="none" xmlns="http://www.w3.org/2000/svg">
<path d="M5.99984 0.166504C2.774 0.166504 0.166504 2.7915 0.166504 5.99984C0.166504 9.20817 2.7915 11.8332 5.99984 11.8332C9.20817 11.8332 11.8332 9.20817 11.8332 5.99984C11.8332 2.7915 9.20817 0.166504 5.99984 0.166504ZM8.33317 8.0065C8.33317 8.20484 8.20484 8.33317 8.0065 8.33317H3.99317C3.79484 8.33317 3.6665 8.20484 3.6665 8.0065V7.74984H8.33317V8.0065ZM8.33317 7.1665H3.6665L3.08317 3.6665L4.83317 4.83317L5.99984 3.08317L7.1665 4.83317L8.9165 3.6665L8.33317 7.1665Z" fill="white"/>
</svg>
