<svg width="9" height="11" viewBox="0 0 9 11" fill="none" xmlns="http://www.w3.org/2000/svg">
<path d="M6.6665 2.75016L6.42817 3.04808C5.789 3.84433 4.49984 3.39475 4.49984 2.371V0.583496C4.49984 0.583496 0.166504 2.75016 0.166504 6.54183C0.166504 8.1235 1.0115 9.50475 2.27359 10.2577C1.97025 9.82975 1.7915 9.30433 1.7915 8.741C1.7915 8.026 2.07317 7.35433 2.58775 6.84516L4.49984 4.971L6.41192 6.85058C6.9265 7.35433 7.20817 8.026 7.20817 8.74641C7.20817 9.29891 7.04025 9.80808 6.74775 10.236C7.7715 9.61308 8.52984 8.5785 8.75734 7.36516C9.11484 5.44225 8.17775 3.62766 6.6665 2.75016Z" fill="white"/>
</svg>
