<svg width="11" height="12" viewBox="0 0 11 12" fill="none" xmlns="http://www.w3.org/2000/svg">
<rect y="0.5" width="11" height="11" rx="5.5" fill="white"/>
<g clip-path="url(#clip0_398_69631)">
<path d="M7.66667 5.5V4.33333C7.66667 4.24493 7.63155 4.16014 7.56904 4.09763C7.50652 4.03512 7.42174 4 7.33333 4H3.33333C3.24493 4 3.16014 4.03512 3.09763 4.09763C3.03512 4.16014 3 4.24493 3 4.33333V7.66667C3 7.75507 3.03512 7.83986 3.09763 7.90237C3.16014 7.96488 3.24493 8 3.33333 8H7.33333C7.42174 8 7.50652 7.96488 7.56904 7.90237C7.63155 7.83986 7.66667 7.75507 7.66667 7.66667V6.5L9 7.83333V4.16667L7.66667 5.5Z" fill="#967E79"/>
</g>
<defs>
<clipPath id="clip0_398_69631">
<rect width="6.11111" height="5" fill="white" transform="translate(2.44434 3.5)"/>
</clipPath>
</defs>
</svg>
